<?xml version="1.0" standalone="no"?>
<!DOCTYPE svg PUBLIC "-//W3C//DTD SVG 20010904//EN"
 "http://www.w3.org/TR/2001/REC-SVG-20010904/DTD/svg10.dtd">
<svg version="1.0" xmlns="http://www.w3.org/2000/svg"
 width="525.000000pt" height="518.000000pt" viewBox="0 0 525.000000 518.000000"
 preserveAspectRatio="xMidYMid meet">
<metadata>
Created by potrace 1.15, written by Peter Selinger 2001-2017
</metadata>
<g transform="translate(0.000000,518.000000) scale(0.100000,-0.100000)"
fill="#000000" stroke="none">
<path d="M2028 5073 c-28 -7 -145 -220 -212 -387 -56 -138 -102 -323 -146
-586 -19 -112 -28 -386 -18 -545 12 -184 44 -330 98 -453 27 -61 40 -103 38
-125 l-3 -32 -120 -19 c-216 -33 -214 -32 -346 -165 -105 -105 -122 -127 -161
-211 -42 -88 -44 -96 -36 -144 5 -28 16 -56 25 -63 9 -7 12 -17 6 -26 -12 -21
-121 -111 -283 -233 -79 -60 -172 -135 -205 -167 -57 -56 -58 -58 -20 -36 88
51 435 292 512 357 121 100 158 146 154 193 -5 70 53 172 163 286 53 56 112
108 130 117 19 9 78 23 132 31 155 25 144 20 144 63 0 20 -13 65 -30 100 -131
277 -121 882 21 1322 59 182 192 436 232 442 71 12 118 -69 179 -307 54 -216
37 -111 -28 165 -83 350 -135 447 -226 423z"/>
<path d="M3879 3579 c-55 -30 -155 -121 -114 -104 11 5 45 10 75 12 l55 4 50
-61 c28 -33 77 -81 110 -108 33 -26 68 -55 78 -65 18 -18 21 -17 95 7 60 21
81 32 93 55 l17 29 -87 66 c-47 36 -112 95 -144 131 l-58 65 -57 0 c-44 0 -70
-7 -113 -31z"/>
<path d="M3575 3374 c-72 -34 -164 -65 -340 -114 -55 -16 -154 -47 -220 -70
-180 -62 -342 -93 -435 -85 -41 4 -84 9 -95 11 -15 4 -25 -4 -39 -26 -10 -17
-16 -33 -14 -34 1 -2 49 -8 106 -15 88 -11 114 -10 185 4 91 18 211 53 332 96
44 15 136 44 205 63 155 43 322 120 369 170 42 44 36 44 -54 0z"/>
<path d="M3375 2920 c-41 -29 -186 -182 -288 -302 -59 -70 -59 -78 1 -78 15 0
50 -7 77 -16 28 -8 217 -33 420 -54 204 -21 402 -44 440 -50 488 -77 610 -104
610 -131 0 -26 -76 -38 -437 -69 -443 -38 -709 -47 -973 -31 -480 29 -726 62
-827 113 -37 18 -38 18 -38 -1 0 -20 39 -39 129 -61 23 -6 41 -13 40 -15 -2
-1 -31 -19 -64 -39 -58 -35 -63 -36 -161 -36 -71 0 -121 6 -165 19 -166 50
-344 80 -534 91 -142 9 -198 9 -220 0 -53 -20 -8 -30 141 -30 133 0 153 -3
330 -45 104 -25 214 -52 244 -61 39 -11 87 -14 165 -12 l110 3 80 47 c44 26
91 49 105 53 14 3 70 -1 125 -9 423 -64 1093 -84 1548 -46 763 63 777 65 777
94 0 21 -178 63 -450 105 -374 59 -447 68 -870 111 -263 27 -406 46 -450 60
-36 11 -84 20 -107 20 -24 0 -43 3 -43 6 0 13 130 180 170 219 43 42 165 175
159 175 -2 -1 -22 -14 -44 -30z"/>
<path d="M2853 1643 c4 -71 7 -347 7 -615 l0 -488 65 0 65 0 0 163 c0 90 -3
367 -7 615 l-6 452 -65 0 -65 0 6 -127z"/>
<path d="M2426 1729 c-33 -26 -37 -88 -6 -119 13 -13 33 -20 59 -20 73 0 108
84 56 135 -30 31 -73 32 -109 4z"/>
<path d="M3301 1724 c-58 -73 26 -169 108 -124 31 16 46 65 31 100 -15 37 -37
50 -84 50 -25 0 -40 -7 -55 -26z"/>
<path d="M442 1127 c-117 -309 -212 -566 -212 -570 0 -4 30 -7 67 -5 l67 3 55
158 55 157 242 0 242 0 57 -160 58 -160 68 0 c38 0 69 2 69 5 0 3 -36 103 -81
222 -177 476 -328 879 -334 896 -6 14 -20 17 -74 17 l-66 0 -213 -563z m288
404 c0 -11 41 -133 90 -272 50 -139 90 -257 90 -261 0 -4 -88 -8 -196 -8 -175
0 -195 2 -190 16 46 120 186 518 186 529 0 8 5 15 10 15 6 0 10 -9 10 -19z"/>
<path d="M3838 1592 l-48 -16 0 -103 0 -103 -70 0 -70 0 0 -55 0 -55 70 0 c39
0 70 -1 71 -2 0 -2 4 -136 8 -298 6 -258 9 -299 25 -330 40 -77 85 -107 173
-116 58 -6 137 8 148 26 4 6 3 30 0 54 -7 43 -8 44 -32 35 -58 -22 -130 -5
-158 37 -20 32 -23 66 -30 347 l-6 247 105 0 106 0 0 55 0 55 -105 0 -105 0 0
120 c0 136 4 131 -82 102z"/>
<path d="M1654 1380 c-102 -21 -190 -89 -237 -182 -97 -192 -66 -475 63 -592
66 -59 121 -80 215 -80 107 1 168 27 237 103 l50 56 -5 -105 c-6 -130 -26
-190 -83 -246 -83 -83 -241 -98 -396 -37 l-78 31 0 -63 0 -62 73 -24 c61 -20
91 -24 197 -23 105 0 134 4 182 23 110 43 190 142 217 269 7 34 11 206 11 487
l0 435 -60 0 -60 0 0 -55 c0 -30 -3 -55 -7 -55 -3 0 -21 17 -39 39 -19 21 -53
48 -77 59 -51 24 -145 34 -203 22z m193 -125 c97 -48 133 -126 133 -284 0
-162 -39 -256 -126 -307 -120 -71 -265 -27 -332 100 -25 48 -27 59 -27 181 0
115 3 136 23 180 64 139 202 193 329 130z"/>
<path d="M2420 955 l0 -415 67 0 66 0 -6 167 c-4 91 -7 278 -7 415 l0 248 -60
0 -60 0 0 -415z"/>
<path d="M3303 1113 c4 -141 7 -330 7 -420 l0 -163 67 0 66 0 -6 218 c-4 119
-7 308 -7 420 l0 202 -67 0 -66 0 6 -257z"/>
<path d="M4243 1358 c152 -368 337 -826 337 -835 0 -21 -73 -188 -97 -221 -35
-47 -76 -65 -140 -60 l-53 5 0 -59 0 -58 73 0 c48 0 85 6 112 19 50 22 116 93
150 161 14 28 109 270 210 538 101 268 187 495 191 505 6 16 0 18 -62 15 l-69
-3 -77 -220 c-64 -184 -146 -424 -165 -485 -2 -8 -37 75 -77 185 -41 110 -100
272 -133 360 l-60 160 -73 3 c-56 2 -71 0 -67 -10z"/>
</g>
</svg>
