<?xml version="1.0" standalone="no"?>
<!DOCTYPE svg PUBLIC "-//W3C//DTD SVG 20010904//EN"
 "http://www.w3.org/TR/2001/REC-SVG-20010904/DTD/svg10.dtd">
<svg version="1.0" xmlns="http://www.w3.org/2000/svg"
 width="960.000000pt" height="540.000000pt" viewBox="0 0 960.000000 540.000000"
 preserveAspectRatio="xMidYMid meet">
<metadata>
Created by potrace 1.15, written by Peter Selinger 2001-2017
</metadata>
<g transform="translate(0.000000,540.000000) scale(0.100000,-0.100000)"
fill="#000000" stroke="none">
<path d="M3978 5073 c-28 -7 -145 -220 -212 -387 -56 -138 -102 -323 -146
-586 -19 -112 -28 -386 -18 -545 12 -184 44 -330 98 -453 27 -61 40 -103 38
-125 l-3 -32 -120 -19 c-216 -33 -214 -32 -346 -165 -105 -105 -122 -127 -161
-211 -42 -88 -44 -96 -36 -144 5 -28 16 -56 25 -63 9 -7 12 -17 6 -26 -12 -21
-121 -111 -283 -233 -79 -60 -172 -135 -205 -167 -57 -56 -58 -58 -20 -36 88
51 435 292 512 357 121 100 158 146 154 193 -5 70 53 172 163 286 53 56 112
108 130 117 19 9 78 23 132 31 155 25 144 20 144 63 0 20 -13 65 -30 100 -131
278 -122 881 21 1322 59 182 192 436 232 442 71 12 118 -69 179 -307 54 -216
37 -111 -28 165 -83 350 -135 447 -226 423z"/>
<path d="M5829 3579 c-55 -30 -155 -121 -114 -104 11 5 45 10 75 12 l55 4 50
-61 c28 -33 77 -81 110 -108 33 -26 68 -55 78 -65 18 -18 21 -17 95 7 60 21
81 32 93 55 l17 29 -87 66 c-47 36 -112 95 -144 131 l-58 65 -57 0 c-44 0 -70
-7 -113 -31z"/>
<path d="M5525 3374 c-72 -34 -164 -65 -340 -114 -55 -16 -154 -47 -220 -70
-180 -62 -342 -93 -435 -85 -41 4 -84 9 -95 11 -15 4 -25 -4 -39 -26 -10 -17
-16 -33 -14 -34 1 -2 49 -8 106 -15 88 -11 114 -10 185 4 91 18 211 53 332 96
44 15 136 44 205 63 155 43 322 120 369 170 42 44 36 44 -54 0z"/>
<path d="M5325 2920 c-41 -29 -186 -182 -288 -302 -59 -70 -59 -78 1 -78 15 0
50 -7 77 -16 28 -8 217 -33 420 -54 204 -21 402 -44 440 -50 488 -77 610 -104
610 -131 0 -26 -76 -38 -442 -70 -314 -28 -413 -33 -673 -33 -509 0 -989 49
-1122 115 -30 15 -37 16 -41 4 -8 -20 11 -31 92 -54 41 -11 75 -22 77 -24 2
-2 -25 -20 -60 -40 -61 -36 -66 -37 -163 -37 -60 0 -119 6 -149 15 -143 44
-357 84 -504 94 -185 14 -232 13 -268 0 -50 -19 -2 -29 144 -29 133 0 153 -3
330 -45 104 -25 214 -52 244 -61 39 -11 87 -14 165 -12 l110 3 80 47 c44 26
91 49 105 53 14 3 70 -1 125 -9 423 -64 1093 -84 1548 -46 763 63 777 65 777
94 0 21 -178 63 -450 105 -374 59 -447 68 -870 111 -263 27 -406 46 -450 60
-36 11 -84 20 -107 20 -24 0 -43 3 -43 6 0 13 130 180 170 219 43 42 165 175
159 175 -2 -1 -22 -14 -44 -30z"/>
<path d="M4337 1533 c-4 -3 -7 -44 -7 -90 l0 -84 93 3 92 3 3 88 3 87 -89 0
c-49 0 -92 -3 -95 -7z"/>
<path d="M4735 1530 c-3 -5 -3 -228 1 -495 l7 -485 88 0 c61 0 88 4 90 13 2 6
3 229 1 495 l-3 482 -89 0 c-49 0 -92 -4 -95 -10z"/>
<path d="M5140 1450 l0 -90 90 0 90 0 0 90 0 90 -90 0 -90 0 0 -90z"/>
<path d="M2784 1523 c-8 -7 -98 -237 -369 -945 -7 -16 2 -18 91 -18 79 0 103
4 120 18 12 9 36 59 54 110 l32 92 177 0 176 0 40 -110 40 -110 106 0 c73 0
110 4 117 13 8 9 -40 140 -173 482 l-182 470 -109 3 c-60 1 -114 -1 -120 -5z
m159 -408 c26 -73 47 -139 47 -144 0 -7 -38 -11 -105 -11 -58 0 -105 2 -105 4
0 2 23 66 50 142 28 76 50 139 50 141 0 2 3 3 8 3 4 0 28 -61 55 -135z"/>
<path d="M5638 1467 l-88 -52 0 -72 0 -73 -40 0 -40 0 0 -80 0 -80 44 0 44 0
4 -222 c3 -203 5 -227 25 -270 33 -71 106 -99 225 -84 82 10 83 12 72 103 l-9
78 -50 -3 c-27 -1 -55 1 -61 5 -7 5 -13 79 -18 201 l-6 192 65 0 65 0 0 80 0
79 -62 3 -63 3 -3 123 c-1 67 -6 122 -10 121 -4 0 -46 -24 -94 -52z"/>
<path d="M3674 1276 c-54 -17 -127 -68 -159 -110 -43 -57 -66 -139 -67 -240
-2 -214 97 -354 258 -364 80 -5 137 14 184 63 19 19 38 35 43 35 6 0 8 -39 5
-91 -6 -118 -16 -129 -124 -129 -61 0 -78 4 -94 20 -11 11 -20 26 -20 33 0 20
-194 44 -215 27 -19 -15 -19 -70 -2 -113 19 -45 88 -103 139 -119 68 -20 282
-17 340 5 54 21 111 79 142 146 20 44 21 62 24 439 l3 393 -88 -3 c-88 -3 -88
-3 -91 -30 -4 -32 -14 -35 -33 -12 -41 50 -167 76 -245 50z m148 -146 c78 -22
125 -121 116 -244 -9 -110 -51 -156 -142 -156 -96 0 -155 100 -143 242 7 85
38 145 81 157 42 12 46 12 88 1z"/>
<path d="M4335 1257 c-3 -6 -4 -167 -3 -357 l3 -345 93 -3 92 -3 0 361 0 360
-90 0 c-64 0 -92 -4 -95 -13z"/>
<path d="M5140 1113 c0 -87 3 -249 7 -360 l6 -203 89 0 88 0 0 118 c0 65 -3
227 -7 360 l-6 242 -89 0 -88 0 0 -157z"/>
<path d="M5961 1218 c11 -29 62 -156 111 -283 157 -397 146 -364 134 -403 -6
-20 -25 -50 -42 -69 -30 -31 -35 -33 -99 -33 l-68 0 7 -62 c12 -105 13 -106
63 -114 124 -18 238 20 285 97 35 56 330 901 319 912 -4 4 -52 6 -106 5 l-98
-3 -33 -105 c-18 -58 -51 -165 -74 -239 -23 -73 -45 -129 -50 -125 -4 5 -41
106 -83 224 -41 118 -78 223 -82 233 -6 15 -21 17 -106 17 l-99 0 21 -52z"/>
</g>
</svg>
