<?xml version="1.0" standalone="no"?>
<!DOCTYPE svg PUBLIC "-//W3C//DTD SVG 20010904//EN"
 "http://www.w3.org/TR/2001/REC-SVG-20010904/DTD/svg10.dtd">
<svg version="1.0" xmlns="http://www.w3.org/2000/svg"
 width="720.000000pt" height="720.000000pt" viewBox="0 0 720.000000 720.000000"
 preserveAspectRatio="xMidYMid meet">

<g transform="translate(0.000000,720.000000) scale(0.100000,-0.100000)"
fill="#000000" stroke="none">
<path d="M2529 6548 c-40 -44 -136 -185 -192 -283 -133 -234 -245 -638 -268
-967 -25 -368 9 -653 105 -868 61 -139 61 -145 -10 -154 -31 -3 -84 -4 -118 0
-33 3 -109 1 -168 -5 -156 -17 -203 -41 -363 -189 l-131 -120 -67 -138 -68
-138 9 -70 c8 -60 7 -74 -7 -92 -23 -31 -177 -156 -312 -255 -63 -46 -168
-127 -234 -180 -127 -103 -259 -231 -215 -209 60 31 260 169 353 244 56 45
154 119 217 165 140 102 211 161 312 260 l77 75 -6 56 c-5 53 -3 61 55 176 59
118 64 125 176 229 166 155 192 166 435 174 l186 6 3 26 c2 14 -16 66 -41 120
-28 61 -54 140 -72 220 -28 120 -29 133 -28 399 0 258 1 283 27 410 38 189 90
377 139 500 68 172 227 419 281 440 14 5 35 0 62 -13 35 -17 48 -32 78 -93 33
-68 87 -250 142 -489 22 -95 29 -148 54 -405 44 -450 59 -533 133 -706 l34
-80 -39 -57 c-21 -31 -37 -57 -35 -57 14 0 101 126 104 150 2 20 -16 69 -58
157 -60 126 -61 131 -84 293 -12 91 -32 266 -44 390 -25 258 -49 386 -130 695
-84 320 -138 415 -232 415 -21 0 -39 -10 -60 -32z"/>
<path d="M4730 4917 l-65 -32 54 -3 c48 -3 62 -9 118 -53 35 -28 66 -56 70
-62 5 -7 28 -23 53 -36 25 -14 69 -40 98 -58 l52 -34 -15 -29 c-9 -17 -28 -33
-50 -40 -63 -21 -31 -20 46 1 147 40 169 49 185 80 8 16 12 33 10 38 -3 5 -50
34 -105 65 -54 31 -137 87 -183 126 -83 69 -83 70 -143 69 -47 0 -74 -7 -125
-32z"/>
<path d="M4065 4611 c-99 -26 -209 -57 -244 -69 -36 -12 -77 -22 -91 -22 -15
0 -58 -11 -98 -24 -80 -28 -306 -66 -386 -66 -29 0 -94 3 -144 6 -82 6 -91 9
-80 23 7 9 0 5 -14 -8 -15 -13 -25 -27 -23 -31 2 -4 68 -10 146 -13 162 -8
342 15 462 58 38 14 81 25 96 25 16 0 48 7 72 16 24 8 130 37 236 64 168 43
307 89 263 88 -8 0 -96 -22 -195 -47z"/>
<path d="M4710 4490 c-96 -23 -354 -132 -453 -192 -93 -56 -125 -82 -235 -199
-70 -74 -144 -154 -164 -179 -31 -37 -38 -41 -38 -24 0 40 -21 46 -99 29 -40
-8 -82 -15 -94 -15 -12 0 -39 -13 -60 -29 l-38 -29 103 -6 c57 -3 137 -7 178
-9 l75 -4 38 53 c21 30 101 121 179 204 184 195 277 256 558 365 110 42 125
53 50 35z"/>
<path d="M6365 3737 c11 -8 17 -18 13 -22 -16 -17 -137 -37 -418 -70 -285 -34
-452 -54 -845 -104 -289 -37 -566 -52 -1047 -58 -624 -8 -1000 13 -1137 63
-36 14 -45 14 -52 3 -18 -28 -9 -49 29 -67 35 -18 204 -52 258 -52 14 0 22 -4
19 -10 -3 -5 -13 -10 -22 -10 -8 0 -56 -24 -106 -52 l-91 -53 -141 0 c-125 0
-148 3 -215 27 -41 14 -167 47 -280 74 -194 45 -215 48 -395 54 -109 3 -202
11 -218 18 -41 17 -86 15 -163 -9 -63 -20 -67 -22 -44 -31 14 -5 43 -18 65
-28 33 -15 77 -20 240 -25 192 -6 209 -8 425 -56 124 -27 259 -61 300 -74 111
-36 239 -50 340 -36 70 9 95 19 180 67 55 30 125 62 157 69 32 8 79 23 105 34
45 19 56 19 370 9 178 -6 514 -8 748 -4 470 6 774 26 1165 75 132 17 470 55
750 86 453 49 591 70 618 94 31 29 -107 51 -533 85 -30 2 -64 8 -75 12 -20 7
-20 7 0 -9z"/>
<path d="M1715 3610 c-19 -31 48 -70 95 -55 25 8 26 41 1 55 -25 13 -88 13
-96 0z"/>
<path d="M4928 2831 l-33 -29 3 -154 c1 -84 5 -204 8 -265 l6 -113 -101 0
c-123 0 -165 -14 -186 -63 -15 -36 -11 -68 12 -104 21 -32 37 -36 163 -42
l115 -6 12 -410 c10 -347 14 -415 28 -441 39 -74 148 -71 176 4 9 23 -1 508
-15 770 l-5 82 103 0 c116 0 157 11 180 45 28 42 21 92 -18 131 l-34 34 -115
0 -115 0 -6 63 c-3 34 -8 149 -11 255 -3 113 -10 203 -17 218 -14 29 -56 54
-92 54 -14 0 -40 -13 -58 -29z"/>
<path d="M3608 2834 c-15 -8 -32 -23 -38 -34 -11 -21 -12 -487 -1 -1168 l6
-414 33 -29 c44 -40 93 -40 133 0 l29 29 0 204 c0 464 -20 1344 -31 1370 -10
25 -62 58 -91 58 -7 -1 -25 -7 -40 -16z"/>
<path d="M995 2815 c-16 -9 -38 -25 -47 -36 -9 -11 -75 -167 -147 -347 -71
-180 -200 -505 -286 -722 -173 -435 -175 -443 -119 -501 22 -23 36 -29 72 -29
67 0 95 37 162 207 l54 140 141 7 c77 3 226 6 332 6 l191 0 31 -82 c18 -46 43
-113 57 -150 42 -110 109 -152 183 -113 30 15 61 69 61 105 0 19 -510 1378
-547 1457 -27 57 -89 83 -138 58z m149 -729 c58 -160 106 -296 106 -303 0 -10
-48 -13 -230 -13 -126 0 -230 3 -230 7 0 20 236 611 242 605 3 -4 54 -137 112
-296z"/>
<path d="M4153 2773 c-30 -6 -73 -59 -73 -89 0 -58 46 -103 103 -104 90 0 130
119 57 171 -30 21 -57 28 -87 22z"/>
<path d="M3093 2755 c-38 -16 -53 -42 -53 -88 0 -45 32 -85 74 -93 115 -21
163 147 54 185 -38 13 -36 13 -75 -4z"/>
<path d="M6475 2320 c-11 -4 -30 -18 -41 -31 -12 -13 -88 -181 -169 -374 -80
-192 -150 -354 -154 -358 -5 -5 -93 150 -196 345 -103 194 -199 365 -212 380
-33 34 -66 42 -102 23 -40 -20 -61 -52 -61 -92 0 -22 69 -164 229 -473 l229
-440 -119 -297 c-135 -339 -139 -355 -84 -410 32 -32 40 -35 73 -30 69 12 75
23 212 362 70 176 219 534 330 795 214 505 217 514 173 563 -15 16 -74 49 -85
46 -2 0 -12 -4 -23 -9z"/>
<path d="M2183 2245 c-218 -49 -376 -254 -390 -505 -17 -309 199 -570 472
-570 70 0 132 16 228 60 37 16 69 30 73 30 3 0 4 -55 2 -122 -3 -107 -7 -130
-30 -179 -95 -205 -326 -254 -461 -98 -83 97 -86 99 -127 99 -78 0 -121 -78
-85 -154 47 -98 203 -209 332 -237 107 -22 242 17 364 107 63 46 93 83 134
164 65 130 65 126 65 770 0 379 -4 588 -10 601 -15 27 -68 52 -96 45 -13 -4
-40 -26 -60 -51 l-38 -44 -31 19 c-54 33 -159 68 -221 74 -35 3 -85 0 -121 -9z
m217 -221 c63 -34 105 -80 139 -154 23 -48 26 -68 26 -155 0 -93 -2 -105 -33
-167 -158 -321 -575 -175 -549 192 16 244 227 387 417 284z"/>
<path d="M3091 2246 c-50 -28 -50 -29 -50 -521 0 -330 4 -470 12 -495 8 -23
24 -41 48 -54 42 -23 79 -17 115 19 l25 25 -3 491 -3 491 -33 29 c-35 32 -72
37 -111 15z"/>
<path d="M4118 2230 l-30 -30 6 -318 c4 -174 9 -395 12 -491 6 -172 6 -173 34
-204 23 -26 36 -32 70 -32 35 0 47 6 72 34 l29 33 -6 326 c-4 180 -10 403 -14
496 -7 168 -7 168 -34 192 -42 36 -100 33 -139 -6z"/>
</g>
</svg>
